OpenSim_Sub09_CSBaseline_GRF.mot
version=1
nRows=34
nColumns=19
inDegrees=no
endheader
time	lFx	lFy	lFz	lCOPx	lCOPy	lCOPz	rFx	rFy	rFz	rCOPx	rCOPy	rCOPz	lMx	lMy	lMz	rMx	rMy	rMz
14.60000000	1.75363617	668.07381998	60.82929224	0.94390771	0	-0.69508092	-0.10298101	-0.53894027	0.03365273	0.00002856	0	-0.00001466	0	-5.12414712	0	0	-0.00013328	-0.00000000
14.61000000	3.22872939	674.66585661	62.40372801	0.93867566	0	-0.69571656	-0.09688997	-0.44910462	0.05399717	-0.00004498	0	0.00002270	0	-5.62687537	0	0	-0.00004452	-0.00000000
14.62000000	4.85561554	682.10910325	63.95582562	0.93356732	0	-0.69635419	-0.09279733	-0.34344850	0.09043877	-0.00004382	0	0.00002218	0	-6.17364639	0	0	-0.00000077	-0.00000000
14.63000000	6.72867492	690.27506358	65.35872277	0.92862485	0	-0.69701445	-0.09966517	-0.25745829	0.08443345	-0.00002348	0	0.00001191	0	-6.78308664	0	0	0.00001112	-0.00000000
14.64000000	8.99276938	698.90782319	66.58145000	0.92380715	0	-0.69774644	-0.09157122	-0.25946854	0.09589018	-0.00000739	0	0.00000375	0	-7.38466345	0	0	0.00000917	0.00000000
14.65000000	11.64032847	707.70642378	67.66817390	0.91896983	0	-0.69856526	-0.07528740	-0.32113605	0.13033939	0.00000023	0	-0.00000011	0	-7.90783377	0	0	0.00000447	-0.00000000
14.66000000	14.40987932	716.20667532	68.62273214	0.91409421	0	-0.69943490	-0.07468023	-0.36366073	0.13877128	0.00000214	0	-0.00000108	0	-8.33970498	0	0	0.00000118	-0.00000000
14.67000000	17.10038286	723.88933571	69.30696794	0.90934571	0	-0.70031813	-0.08468564	-0.35927073	0.10052282	0.00000166	0	-0.00000084	0	-8.69488447	0	0	-0.00000022	-0.00000000
14.68000000	19.70299730	730.43128433	69.67694526	0.90485201	0	-0.70122551	-0.07259838	-0.30187067	0.06758024	0.00000078	0	-0.00000039	0	-8.99674340	0	0	-0.00000049	-0.00000000
14.69000000	22.12945262	735.66617524	69.89886309	0.90071822	0	-0.70219705	-0.06122516	-0.31058114	0.06667250	0.00000019	0	-0.00000010	0	-9.27796763	0	0	-0.00000034	-0.00000000
14.70000000	24.14949882	739.48477467	70.09310960	0.89707908	0	-0.70323798	-0.06296201	-0.39334823	0.08380281	-0.00000005	0	0.00000003	0	-9.53947920	0	0	-0.00000014	0.00000000
14.71000000	25.50680519	741.67005555	70.24857585	0.89380403	0	-0.70427335	-0.05138803	-0.44077419	0.07355678	-0.00000009	0	0.00000005	0	-9.76648493	0	0	-0.00000003	0.00000000
14.72000000	26.32359594	741.97306153	70.23122448	0.89064987	0	-0.70525643	-0.05701601	-0.40943097	0.07979670	-0.00000006	0	0.00000003	0	-9.93821018	0	0	0.00000002	-0.00000000
14.73000000	26.87869743	740.49058398	70.04313960	0.88744202	0	-0.70616675	-0.08938071	-0.27800117	0.10140674	-0.00000002	0	0.00000001	0	-10.06579015	0	0	0.00000002	0.00000000
14.74000000	27.37718087	737.62917410	69.84612349	0.88422347	0	-0.70702092	-0.10350555	-0.13338836	0.13851237	0.00000000	0	0.00000000	0	-10.16187304	0	0	0.00000001	0.00000000
14.75000000	27.84134527	733.86411465	69.77990947	0.88111358	0	-0.70787501	-0.08948331	-0.07559140	0.16159929	0.00000001	0	-0.00000000	0	-10.24750502	0	0	0.00000000	-0.00000000
14.76000000	28.36717226	729.37433788	69.88404230	0.87803389	0	-0.70875506	-0.03800989	-0.10882722	0.09672073	0.00000000	0	-0.00000000	0	-10.34070137	0	0	0.00000000	0.00000000
14.77000000	29.14741023	724.33915995	69.99069994	0.87483620	0	-0.70965508	0.00301955	-0.11623600	0.04827723	-0.00000003	0	0.00000001	0	-10.44651531	0	0	0.00000001	0.00000000
14.78000000	30.20614175	719.30877414	70.04834348	0.87144292	0	-0.71056038	0.03723059	-0.07434238	0.03391975	-0.00000008	0	0.00000003	0	-10.60093689	0	0	0.00000002	-0.00000000
14.79000000	31.34356774	715.05864399	70.10093140	0.86799863	0	-0.71145701	0.04617310	-0.01342060	0.02469316	-0.00000014	0	0.00000005	0	-10.79822901	0	0	0.00000003	0.00000000
14.80000000	32.53268327	712.22121590	70.08958980	0.86459353	0	-0.71232041	0.01613231	0.05734836	0.03134966	-0.00000011	0	0.00000004	0	-10.96124667	0	0	-0.00000000	0.00000000
14.81000000	34.03856983	711.10673302	70.03385683	0.86113367	0	-0.71314961	-0.04021782	0.10866729	0.02145777	0.00000018	0	-0.00000006	0	-11.02834707	0	0	-0.00000010	0.00000000
14.82000000	36.07696397	711.86909855	70.08778447	0.85741060	0	-0.71394086	-0.09163037	0.09477947	0.05440440	0.00000098	0	-0.00000032	0	-11.01373364	0	0	-0.00000032	-0.00000000
14.83000000	38.69081777	714.70152854	70.28437536	0.85340824	0	-0.71469340	-0.13219118	0.06450886	0.09316454	0.00000232	0	-0.00000077	0	-10.93332947	0	0	-0.00000057	0.00000000
14.84000000	41.86320549	719.68318406	70.49430522	0.84898725	0	-0.71536113	-0.14635144	0.03143542	0.09199710	0.00000336	0	-0.00000113	0	-10.82354698	0	0	-0.00000054	-0.00000000
14.85000000	45.77901771	726.33840941	70.53057372	0.84398181	0	-0.71587336	-0.15190229	0.03138459	0.09291962	0.00000149	0	-0.00000055	0	-10.70249205	0	0	0.00000050	0.00000000
14.86000000	50.43390641	733.04342010	70.40790052	0.83838437	0	-0.71619447	-0.15204197	0.02621773	0.12029910	-0.00000818	0	0.00000263	0	-10.58955380	0	0	0.00000357	0.00000000
14.87000000	55.34267953	737.68393299	70.14966894	0.83244394	0	-0.71634366	-0.12132403	0.01046762	0.12300640	-0.00003066	0	0.00001010	0	-10.48230281	0	0	0.00000904	-0.00000000
14.88000000	59.82679649	738.93974612	69.65034397	0.82648301	0	-0.71637875	-0.06761277	0.00282890	0.10987686	-0.00006277	0	0.00002094	0	-10.36854276	0	0	0.00001410	-0.00000000
14.89000000	63.78029631	736.30721285	68.83176375	0.82066089	0	-0.71638988	-0.03692226	0.05421132	0.11397362	-0.00007575	0	0.00002576	0	-10.22190670	0	0	0.00000884	-0.00000000
14.90000000	67.57870862	729.88264198	67.80952038	0.81501319	0	-0.71642405	-0.01876681	0.12426438	0.10510371	0.00000628	0	-0.00000062	0	-10.01669640	0	0	-0.00002640	0.00000000
14.91000000	71.56342040	720.05496424	66.76087517	0.80944522	0	-0.71649279	-0.00162784	0.14417751	0.09938100	0.00030647	0	-0.00009958	0	-9.77126899	0	0	-0.00011428	-0.00000000
14.92000000	75.62834889	707.06043731	65.64999109	0.80393458	0	-0.71661050	-0.01602531	0.17525142	0.05941334	0.00091363	0	-0.00030224	0	-9.48637205	0	0	-0.00024947	-0.00000000
14.93000000	79.35467044	690.52505859	64.25626674	0.79844239	0	-0.71678001	-0.03417933	0.22745621	0.03227687	0.00163256	0	-0.00054692	0	-9.14964738	0	0	-0.00032975	0.00000000
